<?xml version="1.0" encoding="UTF-8" standalone="no"?>
<!-- Created with Inkscape (http://www.inkscape.org/) -->

<svg
   version="1.1"
   id="svg1"
   width="929.51794"
   height="847.026"
   viewBox="0 0 929.51794 847.026"
   xmlns="http://www.w3.org/2000/svg"
   xmlns:svg="http://www.w3.org/2000/svg">
  <defs
     id="defs1">
    <linearGradient
       id="swatch22">
      <stop
         style="stop-color:#0000ff;stop-opacity:1;"
         offset="0"
         id="stop22" />
    </linearGradient>
    <linearGradient
       id="swatch14">
      <stop
         style="stop-color:#ffffff;stop-opacity:1;"
         offset="0"
         id="stop14" />
    </linearGradient>
    <filter
       style="color-interpolation-filters:sRGB"
       id="filter13"
       x="-0.051264872"
       y="-0.043296191"
       width="1.1025297"
       height="1.086585">
      <feGaussianBlur
         stdDeviation="1.1729172"
         id="feGaussianBlur13" />
    </filter>
    <filter
       style="color-interpolation-filters:sRGB"
       id="filter43"
       x="-0.20390768"
       y="-0.15355142"
       width="1.3384447"
       height="1.3863028">
      <feFlood
         result="flood"
         in="SourceGraphic"
         flood-opacity="0.498039"
         flood-color="rgb(0,0,0)"
         id="feFlood42" />
      <feGaussianBlur
         result="blur"
         in="SourceGraphic"
         stdDeviation="8.000000"
         id="feGaussianBlur42" />
      <feOffset
         result="offset"
         in="blur"
         dx="-9.900000"
         dy="9.903134"
         id="feOffset42" />
      <feComposite
         result="comp1"
         operator="in"
         in="flood"
         in2="offset"
         id="feComposite42" />
      <feComposite
         result="fbSourceGraphic"
         operator="over"
         in="SourceGraphic"
         in2="comp1"
         id="feComposite43" />
      <feColorMatrix
         result="fbSourceGraphicAlpha"
         in="fbSourceGraphic"
         values="0 0 0 -1 0 0 0 0 -1 0 0 0 0 -1 0 0 0 0 1 0"
         id="feColorMatrix43" />
      <feFlood
         id="feFlood43"
         result="flood"
         in="fbSourceGraphic"
         flood-opacity="0.498039"
         flood-color="rgb(0,0,0)" />
      <feGaussianBlur
         id="feGaussianBlur43"
         result="blur"
         in="fbSourceGraphic"
         stdDeviation="8.000000" />
      <feOffset
         id="feOffset43"
         result="offset"
         in="blur"
         dx="-9.900000"
         dy="9.903134" />
      <feComposite
         id="feComposite44"
         result="comp1"
         operator="in"
         in="flood"
         in2="offset" />
      <feComposite
         id="feComposite45"
         result="fbSourceGraphic"
         operator="over"
         in="fbSourceGraphic"
         in2="comp1" />
      <feColorMatrix
         result="fbSourceGraphicAlpha"
         in="fbSourceGraphic"
         values="0 0 0 -1 0 0 0 0 -1 0 0 0 0 -1 0 0 0 0 1 0"
         id="feColorMatrix45" />
      <feFlood
         id="feFlood45"
         result="flood"
         in="fbSourceGraphic"
         flood-opacity="0.498039"
         flood-color="rgb(0,0,0)" />
      <feGaussianBlur
         id="feGaussianBlur45"
         result="blur"
         in="fbSourceGraphic"
         stdDeviation="8.000000" />
      <feOffset
         id="feOffset45"
         result="offset"
         in="blur"
         dx="-9.900000"
         dy="9.903134" />
      <feComposite
         id="feComposite46"
         result="comp1"
         operator="in"
         in="flood"
         in2="offset" />
      <feComposite
         id="feComposite47"
         result="fbSourceGraphic"
         operator="over"
         in="fbSourceGraphic"
         in2="comp1" />
      <feColorMatrix
         result="fbSourceGraphicAlpha"
         in="fbSourceGraphic"
         values="0 0 0 -1 0 0 0 0 -1 0 0 0 0 -1 0 0 0 0 1 0"
         id="feColorMatrix47" />
      <feFlood
         id="feFlood47"
         result="flood"
         in="fbSourceGraphic"
         flood-opacity="0.498039"
         flood-color="rgb(0,0,0)" />
      <feGaussianBlur
         id="feGaussianBlur47"
         result="blur"
         in="fbSourceGraphic"
         stdDeviation="8.000000" />
      <feOffset
         id="feOffset47"
         result="offset"
         in="blur"
         dx="-9.900000"
         dy="9.903134" />
      <feComposite
         id="feComposite48"
         result="comp1"
         operator="in"
         in="flood"
         in2="offset" />
      <feComposite
         id="feComposite49"
         result="comp2"
         operator="over"
         in="fbSourceGraphic"
         in2="comp1" />
    </filter>
    <filter
       style="color-interpolation-filters:sRGB"
       id="filter51"
       x="-0.15808388"
       y="-0.61472945"
       width="1.2623867"
       height="2.5465291">
      <feFlood
         result="flood"
         in="SourceGraphic"
         flood-opacity="0.498039"
         flood-color="rgb(0,0,0)"
         id="feFlood49" />
      <feGaussianBlur
         result="blur"
         in="SourceGraphic"
         stdDeviation="8.000000"
         id="feGaussianBlur49" />
      <feOffset
         result="offset"
         in="blur"
         dx="-9.900000"
         dy="9.903134"
         id="feOffset49" />
      <feComposite
         result="comp1"
         operator="in"
         in="flood"
         in2="offset"
         id="feComposite50" />
      <feComposite
         result="fbSourceGraphic"
         operator="over"
         in="SourceGraphic"
         in2="comp1"
         id="feComposite51" />
      <feColorMatrix
         result="fbSourceGraphicAlpha"
         in="fbSourceGraphic"
         values="0 0 0 -1 0 0 0 0 -1 0 0 0 0 -1 0 0 0 0 1 0"
         id="feColorMatrix51" />
      <feFlood
         id="feFlood51"
         result="flood"
         in="fbSourceGraphic"
         flood-opacity="0.498039"
         flood-color="rgb(0,0,0)" />
      <feGaussianBlur
         id="feGaussianBlur51"
         result="blur"
         in="fbSourceGraphic"
         stdDeviation="8.000000" />
      <feOffset
         id="feOffset51"
         result="offset"
         in="blur"
         dx="-9.900000"
         dy="9.903134" />
      <feComposite
         id="feComposite52"
         result="comp1"
         operator="in"
         in="flood"
         in2="offset" />
      <feComposite
         id="feComposite53"
         result="fbSourceGraphic"
         operator="over"
         in="fbSourceGraphic"
         in2="comp1" />
      <feColorMatrix
         result="fbSourceGraphicAlpha"
         in="fbSourceGraphic"
         values="0 0 0 -1 0 0 0 0 -1 0 0 0 0 -1 0 0 0 0 1 0"
         id="feColorMatrix53" />
      <feFlood
         id="feFlood53"
         result="flood"
         in="fbSourceGraphic"
         flood-opacity="0.498039"
         flood-color="rgb(0,0,0)" />
      <feGaussianBlur
         id="feGaussianBlur53"
         result="blur"
         in="fbSourceGraphic"
         stdDeviation="8.000000" />
      <feOffset
         id="feOffset53"
         result="offset"
         in="blur"
         dx="-9.900000"
         dy="9.903134" />
      <feComposite
         id="feComposite54"
         result="comp1"
         operator="in"
         in="flood"
         in2="offset" />
      <feComposite
         id="feComposite55"
         result="fbSourceGraphic"
         operator="over"
         in="fbSourceGraphic"
         in2="comp1" />
      <feColorMatrix
         result="fbSourceGraphicAlpha"
         in="fbSourceGraphic"
         values="0 0 0 -1 0 0 0 0 -1 0 0 0 0 -1 0 0 0 0 1 0"
         id="feColorMatrix55" />
      <feFlood
         id="feFlood55"
         result="flood"
         in="fbSourceGraphic"
         flood-opacity="0.498039"
         flood-color="rgb(0,0,0)" />
      <feGaussianBlur
         id="feGaussianBlur55"
         result="blur"
         in="fbSourceGraphic"
         stdDeviation="8.000000" />
      <feOffset
         id="feOffset55"
         result="offset"
         in="blur"
         dx="-9.900000"
         dy="9.903134" />
      <feComposite
         id="feComposite56"
         result="comp1"
         operator="in"
         in="flood"
         in2="offset" />
      <feComposite
         id="feComposite57"
         result="comp2"
         operator="over"
         in="fbSourceGraphic"
         in2="comp1" />
    </filter>
  </defs>
  <g
     id="g1"
     transform="translate(-27.441019,-86.692192)">
    <g
       id="g121"
       style="display:inline">
      <g
         id="g120"
         style="filter:url(#filter43)">
        <path
           id="path59"
           style="display:inline;opacity:1;fill:#1c1c29;fill-opacity:1;stroke-width:263.205"
           d="m 283.65039,163.49414 c -37.49919,9.44782 -65.13867,43.17813 -65.13867,83.69141 v 330.04492 c 0,47.87672 38.54321,86.41992 86.41992,86.41992 h 398.00195 c 47.87672,0 86.41993,-38.5432 86.41993,-86.41992 V 247.18555 c 0,-40.51328 -27.63948,-74.24359 -65.13868,-83.69141 z" />
        <path
           d="m 725.26327,371.36131 v 13.63681 c 0,10.67977 -25.8256,19.34563 -55.47929,19.34563 -29.64814,0 -55.47929,-8.66586 -55.47929,-19.34563 v -13.63681 c 13.4149,9.6423 38.86324,12.51612 55.47929,12.51612 16.67708,0 42.0977,-2.90156 55.47929,-12.51612 z m -55.47929,-18.91289 c -16.67708,0 -42.09769,-2.90156 -55.47929,-12.51613 v 13.50366 c 0,10.68531 25.83115,19.34562 55.47929,19.34562 29.65369,0 55.47929,-8.66586 55.47929,-19.34562 v -13.50366 c -13.41488,9.6423 -38.86324,12.51613 -55.47929,12.51613 z m 0,-81.25497 c -29.64814,0 -55.47929,8.66586 -55.47929,19.35117 0,10.68532 25.83115,19.34563 55.47929,19.34563 29.65369,0 55.47929,-8.66586 55.47929,-19.34563 0,-10.68531 -25.8256,-19.35117 -55.47929,-19.35117 z m 0,49.79266 c -16.67708,0 -42.09769,-2.90157 -55.47929,-12.51612 v 13.53694 c 0,10.68531 25.83115,19.34563 55.47929,19.34563 29.65369,0 55.47929,-8.66586 55.47929,-19.34563 v -13.53694 c -13.41488,9.64229 -38.86324,12.51612 -55.47929,12.51612 z"
           id="path60"
           style="display:inline;fill:#ffffff;stroke-width:5.54793" />
        <path
           d="m 769.063,542.45319 v -22.17782 c -11.32909,-4.02796 -18.48609,-5.16017 -22.08863,-13.85427 v -0.007 c -3.61625,-8.72154 0.6862,-14.6434 5.81208,-25.43725 L 737.1069,465.29778 c -10.71152,5.09156 -16.69515,9.43519 -25.43726,5.81207 h -0.007 c -8.70782,-3.60938 -9.84689,-10.81443 -13.85428,-22.08863 h -22.17793 c -3.99365,11.2193 -5.1396,18.47238 -13.85429,22.08863 h -0.007 c -8.72154,3.62312 -14.62968,-0.67246 -25.43725,-5.81207 l -15.67957,15.67956 c 5.11216,10.75954 9.43519,16.70199 5.81207,25.43725 -3.61624,8.72154 -10.86931,9.8675 -22.08861,13.86115 v 22.17782 c 11.19871,3.97993 18.47237,5.1396 22.08861,13.85429 3.63684,8.797 -0.78226,14.86298 -5.81207,25.43725 l 15.67957,15.68642 c 10.71836,-5.09844 16.70199,-9.43519 25.43725,-5.81208 h 0.007 c 8.71469,3.6094 9.85376,10.83502 13.85429,22.08862 h 22.17782 c 3.99365,-11.22614 5.14646,-18.45865 13.90918,-22.1092 h 0.007 c 8.65979,-3.59567 14.54735,0.69305 25.3755,5.83952 l 15.67956,-15.68642 c -5.10528,-10.72524 -9.43518,-16.69513 -5.81893,-25.43041 3.61625,-8.72152 10.89678,-9.8812 22.10234,-13.86799 z m -82.34341,16.3589 c -15.15807,0 -27.44781,-12.28974 -27.44781,-27.4478 0,-15.15805 12.28974,-27.44781 27.44781,-27.44781 15.15804,0 27.4478,12.28976 27.4478,27.44781 0,15.15806 -12.28976,27.4478 -27.4478,27.4478 z"
           id="path61"
           style="fill:#2c9fff;fill-opacity:1;stroke-width:6.86195" />
        <a
           id="a64"
           style="display:inline">
          <path
             d="m 489.16462,367.04802 c 0,1.15224 -1.14497,1.15224 -1.14497,1.15224 h -1.14496 c -1.14496,0 -1.14496,-1.15224 -2.28992,-2.30448 0,0 -1.14497,-1.15224 -1.14497,-2.30448 0,-1.15225 0,-1.15225 1.14497,-1.15225 l 2.28992,1.15225 c 1.14496,1.15224 2.28993,2.30448 2.28993,3.45672 M 468.5553,355.52561 c 0,-5.7612 -2.28993,-9.21793 -5.72482,-9.21793 0,0 0,1.15224 -1.14496,1.15224 v 2.30449 h 3.43488 c 0,2.30448 1.14497,3.45672 1.14497,5.7612 h 2.28993 m 40.07367,-5.7612 c 2.28993,0 3.43488,2.30448 4.57985,5.7612 h 2.28992 c -1.14496,-1.15224 -1.14496,-2.30448 -1.14496,-3.45672 0,-1.15224 0,-2.30448 -1.14496,-3.45672 -1.14497,-1.15225 -2.28992,-2.30449 -3.43489,-2.30449 0,0 -1.14496,1.15224 -2.28992,1.15224 0,1.15225 1.14496,1.15225 1.14496,2.30449 m -34.34886,18.43585 c -1.14497,0 -1.14497,0 -1.14497,-1.15224 0,-1.15224 0,-2.30448 1.14497,-3.45672 2.28992,0 3.43488,-1.15225 3.43488,-1.15225 1.14497,0 1.14497,1.15225 1.14497,1.15225 0,1.15224 -1.14497,2.30448 -3.43489,4.60896 h -1.14496 m -12.59459,-1.15224 c -4.57984,-2.30448 -5.72481,-5.76121 -5.72481,-11.52241 0,-3.45672 0,-5.7612 2.28992,-8.06569 1.14497,-2.30448 3.43489,-3.45672 5.72482,-3.45672 2.28992,0 3.43489,1.15224 5.72481,3.45672 1.14496,3.45673 2.28993,6.91345 2.28993,10.37017 v 2.30448 h 1.14495 v -1.15224 c 1.14497,0 1.14497,-2.30448 1.14497,-6.91344 0,-3.45672 0,-6.91345 -2.28992,-10.37017 -2.28993,-3.45672 -4.57985,-5.7612 -9.15971,-5.7612 -3.43488,0 -6.86977,2.30448 -8.01473,5.7612 -2.28992,4.60896 -2.7479,8.06569 -2.7479,13.82689 0,4.60896 1.60294,9.21793 6.18278,13.82689 1.14497,-1.15224 2.28993,-1.15224 3.43489,-2.30448 m 143.12026,162.46594 c 1.14497,0 1.14497,-0.46089 1.14497,-1.49791 0,-2.53493 -1.14497,-5.53075 -4.57985,-8.87225 -3.43489,-3.45672 -9.1597,-5.64598 -16.02947,-6.56777 -1.14496,-0.11523 -2.28993,-0.11523 -2.28993,-0.11523 -1.14495,-0.23045 -1.14495,-0.23045 -2.28992,-0.23045 -1.14496,-0.11522 -3.43488,-0.34567 -4.57985,-0.57612 3.43489,-10.71584 4.57985,-20.16421 4.57985,-28.46034 0,-11.52241 -2.28992,-19.5881 -6.86977,-26.50154 -4.57985,-6.91345 -9.1597,-10.37017 -14.88451,-11.52241 -1.14496,1.15224 -1.14496,1.15224 -1.14496,2.30448 5.72481,2.30448 11.44962,6.91345 14.8845,13.82689 3.43489,8.06569 4.57986,14.97913 4.57986,23.04482 0,6.45255 -1.14497,16.01614 -5.72481,28.2299 -4.57985,1.84358 -9.1597,6.10687 -12.59459,12.78987 0,1.03701 0,1.61313 1.14497,1.61313 0,0 1.14495,-1.03701 2.28992,-2.99582 2.28992,-1.95881 3.43488,-3.91762 5.7248,-5.87643 3.4349,-1.95881 5.72482,-2.99582 9.15971,-2.99582 5.7248,0 11.44962,0.80656 14.8845,2.4197 4.57985,1.49791 6.86978,3.11105 8.01473,4.95464 1.14497,1.72836 2.28993,3.34149 3.43489,4.83941 0,1.49791 1.14496,2.18925 1.14496,2.18925 M 499.46927,362.43905 c -1.14496,-1.15224 -1.14496,-3.45672 -1.14496,-5.7612 0,-4.60896 0,-6.91344 2.28992,-10.37017 2.28993,-2.30448 4.57985,-3.45672 6.86978,-3.45672 3.43489,0 5.72481,2.30448 8.01473,4.60896 1.14496,3.45673 2.28993,5.76121 2.28993,9.21793 0,5.7612 -2.28993,9.21793 -6.86977,10.37017 0,0 1.14495,1.15224 2.28992,1.15224 2.28992,0 3.43488,1.15224 5.7248,2.30448 1.14497,-6.91344 2.28994,-11.52241 2.28994,-17.28361 0,-6.91345 -1.14497,-11.52241 -3.43489,-14.97913 -3.43489,-3.45672 -6.86977,-4.60896 -11.44962,-4.60896 -3.43489,0 -6.86978,1.15224 -10.30466,3.45672 -2.28993,3.45672 -3.43489,5.7612 -3.43489,9.21792 0,5.76121 1.14496,10.37017 3.43489,14.97913 1.14495,0 2.28992,1.15224 3.43488,1.15224 m 13.73955,18.43586 c -14.88451,10.37016 -26.33413,14.97913 -35.49383,14.97913 -8.01473,0 -16.02947,-3.45673 -22.89924,-9.21793 1.14496,2.30448 2.28993,4.60896 3.43488,5.7612 l 6.86977,6.91345 c 4.57986,4.60896 10.30467,6.91344 16.02948,6.91344 8.01474,0 17.17443,-4.60896 28.62405,-12.67464 l 10.30466,-6.91345 c 2.28992,-2.30448 4.57985,-4.60896 4.57985,-8.06568 0,-1.15225 0,-2.30449 -1.14496,-2.30449 -1.14497,-2.30448 -6.86978,-5.7612 -18.3194,-9.21792 -10.30466,-4.60897 -18.31939,-6.91345 -22.89924,-6.91345 -3.43488,0 -9.1597,2.30448 -17.17444,6.91345 -6.86977,4.60896 -11.44961,9.21792 -11.44961,13.82689 0,0 1.14496,1.15224 2.28992,3.45672 6.86977,5.7612 13.73955,9.21793 20.60932,9.21793 9.1597,0 20.60931,-4.60897 35.49382,-16.13138 v 2.30449 c 1.14497,0 1.14497,1.15224 1.14497,1.15224 m 26.33413,232.75263 c 4.57984,8.66485 12.59458,13.02032 21.75427,13.02032 2.28993,0 4.57985,-0.34567 6.86977,-1.03702 2.28993,-0.46089 4.57985,-1.26746 5.72482,-2.18925 1.14496,-0.80657 2.28992,-1.61314 3.43489,-2.53493 2.28992,-0.80657 2.28992,-1.38269 3.43488,-1.95881 l 19.46435,-16.93794 c 4.57985,-3.67565 9.1597,-6.8904 14.88451,-9.67882 4.57985,-2.76538 9.1597,-4.60897 11.44962,-5.64598 3.43489,-0.9218 5.72481,-2.30449 8.01474,-4.14807 1.14496,-1.72836 2.28992,-3.91762 2.28992,-6.683 0,-3.3415 -2.28992,-5.87642 -4.57985,-7.72001 -2.28992,-1.84359 -4.57984,-3.11105 -6.86977,-3.91762 -2.28992,-0.80657 -4.57984,-2.65015 -8.01473,-5.7612 -2.28993,-2.99583 -4.57985,-7.1439 -5.72482,-12.55943 l -1.14495,-6.68299 c -1.14497,-3.11105 -1.14497,-5.41553 -2.28993,-6.683 0,-0.34567 0,-0.4609 -1.14496,-0.4609 -1.14496,0 -3.43489,1.03702 -4.57985,2.99583 -2.28993,1.95881 -4.57985,4.14807 -6.86977,6.45255 -1.14496,2.30448 -4.57985,4.37851 -6.86977,6.33732 -3.43489,1.95881 -6.86977,2.99583 -9.1597,2.99583 -9.1597,0 -13.73955,-2.53493 -17.17443,-7.48957 -2.28992,-3.68717 -3.43489,-7.95046 -4.57985,-12.78987 -2.28993,-1.95881 -3.43489,-2.99582 -5.72481,-2.99582 -5.72481,0 -8.01474,5.99165 -8.01474,18.09018 v 35.83468 c 0,1.03702 -1.14495,3.3415 -1.14495,6.91345 -1.14497,3.57194 -1.14497,7.62783 -1.14497,12.21375 l -2.28992,12.78987 v 0.19588 m -166.01951,-6.09535 c 10.64815,1.56705 22.89925,4.92007 36.75329,10.03602 13.85404,5.06986 22.32676,7.72001 25.41815,7.72001 8.01474,0 14.65552,-3.57195 20.15133,-10.47387 1.14497,-2.23535 1.14497,-4.86246 1.14497,-7.88133 0,-10.88867 -6.52629,-24.65795 -19.57886,-41.36544 l -7.78574,-10.48539 c -1.60295,-2.18926 -3.54937,-5.53076 -6.0683,-10.02449 -2.40442,-4.49374 -4.57984,-7.95047 -6.29728,-10.37017 -1.48846,-2.65016 -3.89288,-5.30031 -6.98427,-7.95046 -2.97691,-2.65016 -6.41179,-4.37852 -10.19016,-5.30031 -4.80885,0.92179 -8.12924,2.53493 -9.73218,4.72419 -1.60295,2.18925 -2.51892,4.60896 -2.74791,7.14389 -0.3435,2.4197 -1.03047,4.03284 -2.17544,4.83941 -1.14495,0.69135 -3.09139,1.26747 -5.7248,1.84359 -0.57248,0 -1.60295,0 -3.0914,0.11522 h -3.0914 c -6.0683,0 -10.19016,0.69134 -12.36558,1.84359 -2.86241,3.34149 -4.35086,7.14389 -4.35086,11.17673 0,1.84359 0.45798,4.95464 1.37395,9.33315 0.91597,4.26329 1.37395,7.72001 1.37395,10.13972 0,4.72419 -1.37395,9.44837 -4.23636,14.17256 -2.8624,4.95464 -4.35085,8.64181 -4.35085,11.26892 1.14496,4.47069 8.70171,7.61631 22.55575,9.45989 m 38.12724,-104.73868 c 0,-7.95046 2.06093,-16.70749 6.29729,-27.07766 4.12186,-10.37017 8.24372,-17.28361 12.2511,-21.89258 -0.229,-1.15224 -0.80147,-1.15224 -1.71744,-1.15224 l -1.14497,-1.15224 c -3.32039,3.45673 -7.32775,11.52241 -12.1366,23.04482 -4.80883,10.37017 -7.32775,19.93376 -7.32775,26.96243 0,5.18509 1.25945,9.67882 3.54937,13.59644 2.51893,3.8024 8.58723,9.33315 18.2049,16.36182 l 12.1366,7.95046 c 12.93808,11.29196 19.80785,19.1272 19.80785,23.73616 0,2.41971 -1.14496,4.83941 -4.57985,7.48957 -2.28992,2.76538 -5.38132,4.14806 -8.01474,4.14806 -0.22899,0 -0.34348,0.23045 -0.34348,0.80657 0,0.11523 1.14496,2.41971 3.54937,6.91345 4.80885,6.56777 15.11351,9.79404 28.85305,9.79404 25.18917,0 44.65353,-10.37016 59.53803,-31.1105 0,-5.7612 0,-9.33315 -1.14496,-10.83106 v -4.26329 c 0,-7.48957 1.14496,-13.13555 3.43489,-16.82272 2.28992,-3.68717 4.57984,-5.41553 8.01473,-5.41553 2.28993,0 4.57985,0.80657 6.86978,2.53493 1.14495,-8.87225 1.14495,-16.59226 1.14495,-23.50571 0,-10.48539 0,-19.1272 -2.28992,-27.19288 -1.14496,-6.91345 -3.43488,-12.67465 -5.72481,-17.28361 l -6.86978,-10.37017 c -2.28992,-3.45672 -3.43488,-6.91344 -5.7248,-10.37017 -1.14497,-4.60896 -2.28992,-8.06568 -2.28992,-13.82688 -3.43489,-5.76121 -5.72482,-11.52241 -9.15971,-17.28362 -2.28992,-5.7612 -4.57985,-11.5224 -6.86977,-16.13137 l -10.30466,8.06569 c -11.44962,8.06568 -20.60931,11.52241 -28.62405,11.52241 -6.86977,0 -12.59458,-1.15224 -16.02946,-5.76121 l -6.86977,-5.7612 c 0,3.45672 -1.14497,8.06568 -3.43489,12.67465 l -7.21326,13.82689 c -3.2059,8.06568 -4.92334,12.67464 -5.26683,16.13137 -0.45799,2.30448 -0.80147,4.60896 -1.03047,4.60896 l -8.58721,17.28361 c -9.27419,17.28361 -13.96854,33.29976 -13.96854,46.55053 0,2.65015 0.22899,5.41553 0.68697,8.18091 -5.15233,-3.57195 -7.67124,-8.52658 -7.67124,-14.97913 m 81.97929,109.00197 c -14.88451,0 -26.33413,2.02795 -34.34887,6.04927 v -0.34568 c -5.72481,6.91345 -12.1366,10.4854 -21.06729,10.4854 -5.61032,0 -14.42653,-2.18926 -26.33414,-6.56778 -12.0221,-4.14806 -22.67025,-7.32825 -31.94444,-9.42533 -0.91597,-0.26501 -2.9769,-0.65677 -6.29729,-1.1868 -3.20589,-0.51851 -6.1828,-1.04854 -8.81621,-1.57857 -2.40442,-0.51851 -5.15233,-1.30204 -8.12923,-2.3621 -2.86241,-0.91027 -5.15233,-2.09708 -6.86977,-3.53738 -1.58005,-1.45182 -2.35862,-3.088 -2.35862,-4.92007 0,-1.84358 0.38928,-3.81391 1.16786,-5.91099 0.73277,-1.26746 1.53424,-2.53493 2.33572,-3.68717 0.80147,-1.26747 1.48845,-2.41971 1.94643,-3.57195 0.68698,-1.03701 1.14497,-2.07403 1.60295,-3.22627 0.45799,-1.03702 0.91597,-2.07403 1.14497,-3.3415 0.22899,-1.15224 0.45798,-2.30448 0.45798,-3.45672 0,-1.15224 -0.45798,-4.60896 -1.37396,-10.71584 -0.91597,-5.99165 -1.37395,-9.79405 -1.37395,-11.40718 0,-5.06986 1.14496,-9.10271 3.66388,-11.98331 2.51891,-2.8806 4.92334,-4.37851 7.44226,-4.37851 h 13.16705 c 1.03047,0 2.63341,-0.57612 5.03784,-1.95881 0.80148,-1.84359 1.48845,-3.3415 1.94643,-4.72419 0.57249,-1.38269 0.80147,-2.4197 1.03047,-2.8806 0.22899,-0.69135 0.45799,-1.38269 0.68697,-1.95881 0.45799,-0.80657 1.03047,-1.72836 1.83194,-2.65015 -0.91597,-1.15224 -1.37395,-2.65016 -1.37395,-4.49374 0,-1.26747 0,-2.41971 0.229,-3.11105 0,-4.14807 1.94643,-10.0245 6.0683,-17.74451 l 4.00736,-7.25912 c 3.32039,-6.2221 5.83931,-10.83106 7.67125,-15.44002 1.94643,-4.60897 4.00737,-11.52241 6.29729,-20.74034 1.83194,-8.06568 6.1828,-16.13137 13.05257,-24.19705 l 8.58721,-10.37017 c 5.95381,-6.91344 9.84668,-12.67465 12.0221,-17.28361 2.17543,-4.60896 3.32039,-10.37017 3.32039,-14.97913 0,-2.30448 -0.57247,-9.21793 -1.83194,-20.74033 -1.14495,-11.52241 -1.71744,-23.04482 -1.71744,-33.41499 0,-8.06568 0.68697,-13.82689 2.17543,-19.58809 1.48845,-5.7612 4.12186,-11.52241 8.01474,-16.13137 3.43489,-4.60896 8.01473,-9.21793 14.8845,-11.52241 6.86977,-2.30448 14.88451,-3.45672 24.04421,-3.45672 3.43489,0 6.86977,0 10.30466,1.15224 3.43488,0 8.01473,1.15224 13.73954,3.45672 4.57984,2.30448 9.15969,4.60897 12.59458,8.06569 4.57985,3.45672 8.01474,9.21792 11.44962,14.97913 2.28992,6.91344 4.57985,13.82689 5.72481,23.04481 1.14497,5.76121 1.14497,11.52241 2.28993,19.5881 0,6.91344 1.14496,11.5224 1.14496,14.97913 1.14496,3.45672 1.14496,8.06568 2.28993,13.82689 1.14495,4.60896 2.28992,9.21792 4.57985,12.67464 2.28992,4.60897 4.57984,9.21793 8.01472,13.82689 3.43489,5.76121 8.01474,11.52241 12.59459,18.43585 10.30466,11.52241 18.3194,24.19706 22.89924,36.87171 5.72482,11.52241 9.1597,26.50154 9.1597,42.51768 0,7.95046 -1.14496,15.67048 -3.43488,23.16004 2.28992,0 3.43488,0.92179 4.57984,2.53493 1.14496,1.61314 2.28993,5.06986 3.43488,10.48539 l 1.14497,8.52658 c 1.14496,2.53493 2.28992,4.95464 5.72481,7.02867 2.28993,2.07404 4.57985,3.8024 8.01473,5.18509 2.28993,1.15224 5.72482,2.76537 8.01474,4.83941 2.28992,2.30448 3.43489,4.72418 3.43489,7.25911 0,3.91762 -1.14497,6.79822 -3.43489,8.87226 -2.28992,2.30448 -4.57985,3.91762 -8.01474,4.95463 -2.28992,1.15224 -6.86977,3.45673 -13.73954,6.70604 -5.72481,3.41064 -11.44962,7.54718 -17.17443,12.4442 l -11.44962,9.80557 c -4.57986,4.49374 -9.1597,7.72002 -12.59458,9.67883 -3.43489,2.07403 -8.01474,3.11105 -12.59459,3.11105 l -8.01474,-0.9218 c -9.15969,-2.4197 -14.8845,-7.02867 -18.31938,-14.05733 -18.3194,-2.23535 -33.20391,-3.3415 -42.3636,-3.3415"
             id="path62"
             style="display:inline;mix-blend-mode:normal;fill:#000000;stroke:#ffffff;stroke-width:24.5;stroke-dasharray:none;stroke-opacity:1;filter:url(#filter13)" />
          <path
             style="display:inline;opacity:1;fill:#ffffff;fill-rule:evenodd;stroke:#ffffff;stroke-width:24.5;stroke-dasharray:none;stroke-opacity:1"
             d="m 459.65255,413.09675 -37.28607,95.97318 -25.93645,26.37011 -6.48274,12.40475 -21.85125,2.51078 -1.1822,20.03653 -4.19568,19.59736 0.50823,5.9524 75.06657,22.77105 10.20609,-11.36067 55.81724,-8.1262 53.69592,19.45925 13.56209,-3.21237 7.47158,-7.6373 13.35492,-10.10389 15.59226,-10.51546 6.97992,-3.62944 10.74747,-6.11537 -1.99426,-5.64581 -13.88526,-10.86624 -9.76691,-11.1977 -6.77552,-22.77657 3.84213,-19.81556 5.04918,-5.50218 -1.72081,-12.00424 -2.47487,-9.84978 -3.48858,-9.74205 -23.84552,-38.94612 -20.3017,-27.40591 -4.94698,-14.91553 -7.16774,-57.25079 -8.94104,-24.43662 -16.72473,-11.47943 -20.79888,-4.48295 -21.9728,3.82556 -7.98257,7.15945 -4.54924,6.62913 -1.93349,13.03728 -1.25677,14.89068 4.58791,16.8656 2.88919,16.89046 0.80102,3.78689"
             id="path63" />
          <path
             d="m 489.16462,367.04802 c 0,1.15224 -1.14497,1.15224 -1.14497,1.15224 h -1.14496 c -1.14496,0 -1.14496,-1.15224 -2.28992,-2.30448 0,0 -1.14497,-1.15224 -1.14497,-2.30448 0,-1.15225 0,-1.15225 1.14497,-1.15225 l 2.28992,1.15225 c 1.14496,1.15224 2.28993,2.30448 2.28993,3.45672 M 468.5553,355.52561 c 0,-5.7612 -2.28993,-9.21793 -5.72482,-9.21793 0,0 0,1.15224 -1.14496,1.15224 v 2.30449 h 3.43488 c 0,2.30448 1.14497,3.45672 1.14497,5.7612 h 2.28993 m 40.07367,-5.7612 c 2.28993,0 3.43488,2.30448 4.57985,5.7612 h 2.28992 c -1.14496,-1.15224 -1.14496,-2.30448 -1.14496,-3.45672 0,-1.15224 0,-2.30448 -1.14496,-3.45672 -1.14497,-1.15225 -2.28992,-2.30449 -3.43489,-2.30449 0,0 -1.14496,1.15224 -2.28992,1.15224 0,1.15225 1.14496,1.15225 1.14496,2.30449 m -34.34886,18.43585 c -1.14497,0 -1.14497,0 -1.14497,-1.15224 0,-1.15224 0,-2.30448 1.14497,-3.45672 2.28992,0 3.43488,-1.15225 3.43488,-1.15225 1.14497,0 1.14497,1.15225 1.14497,1.15225 0,1.15224 -1.14497,2.30448 -3.43489,4.60896 h -1.14496 m -12.59459,-1.15224 c -4.57984,-2.30448 -5.72481,-5.76121 -5.72481,-11.52241 0,-3.45672 0,-5.7612 2.28992,-8.06569 1.14497,-2.30448 3.43489,-3.45672 5.72482,-3.45672 2.28992,0 3.43489,1.15224 5.72481,3.45672 1.14496,3.45673 2.28993,6.91345 2.28993,10.37017 v 2.30448 h 1.14495 v -1.15224 c 1.14497,0 1.14497,-2.30448 1.14497,-6.91344 0,-3.45672 0,-6.91345 -2.28992,-10.37017 -2.28993,-3.45672 -4.57985,-5.7612 -9.15971,-5.7612 -3.43488,0 -6.86977,2.30448 -8.01473,5.7612 -2.28992,4.60896 -2.7479,8.06569 -2.7479,13.82689 0,4.60896 1.60294,9.21793 6.18278,13.82689 1.14497,-1.15224 2.28993,-1.15224 3.43489,-2.30448 m 143.12026,162.46594 c 1.14497,0 1.14497,-0.46089 1.14497,-1.49791 0,-2.53493 -1.14497,-5.53075 -4.57985,-8.87225 -3.43489,-3.45672 -9.1597,-5.64598 -16.02947,-6.56777 -1.14496,-0.11523 -2.28993,-0.11523 -2.28993,-0.11523 -1.14495,-0.23045 -1.14495,-0.23045 -2.28992,-0.23045 -1.14496,-0.11522 -3.43488,-0.34567 -4.57985,-0.57612 3.43489,-10.71584 4.57985,-20.16421 4.57985,-28.46034 0,-11.52241 -2.28992,-19.5881 -6.86977,-26.50154 -4.57985,-6.91345 -9.1597,-10.37017 -14.88451,-11.52241 -1.14496,1.15224 -1.14496,1.15224 -1.14496,2.30448 5.72481,2.30448 11.44962,6.91345 14.8845,13.82689 3.43489,8.06569 4.57986,14.97913 4.57986,23.04482 0,6.45255 -1.14497,16.01614 -5.72481,28.2299 -4.57985,1.84358 -9.1597,6.10687 -12.59459,12.78987 0,1.03701 0,1.61313 1.14497,1.61313 0,0 1.14495,-1.03701 2.28992,-2.99582 2.28992,-1.95881 3.43488,-3.91762 5.7248,-5.87643 3.4349,-1.95881 5.72482,-2.99582 9.15971,-2.99582 5.7248,0 11.44962,0.80656 14.8845,2.4197 4.57985,1.49791 6.86978,3.11105 8.01473,4.95464 1.14497,1.72836 2.28993,3.34149 3.43489,4.83941 0,1.49791 1.14496,2.18925 1.14496,2.18925 M 499.46927,362.43905 c -1.14496,-1.15224 -1.14496,-3.45672 -1.14496,-5.7612 0,-4.60896 0,-6.91344 2.28992,-10.37017 2.28993,-2.30448 4.57985,-3.45672 6.86978,-3.45672 3.43489,0 5.72481,2.30448 8.01473,4.60896 1.14496,3.45673 2.28993,5.76121 2.28993,9.21793 0,5.7612 -2.28993,9.21793 -6.86977,10.37017 0,0 1.14495,1.15224 2.28992,1.15224 2.28992,0 3.43488,1.15224 5.7248,2.30448 1.14497,-6.91344 2.28994,-11.52241 2.28994,-17.28361 0,-6.91345 -1.14497,-11.52241 -3.43489,-14.97913 -3.43489,-3.45672 -6.86977,-4.60896 -11.44962,-4.60896 -3.43489,0 -6.86978,1.15224 -10.30466,3.45672 -2.28993,3.45672 -3.43489,5.7612 -3.43489,9.21792 0,5.76121 1.14496,10.37017 3.43489,14.97913 1.14495,0 2.28992,1.15224 3.43488,1.15224 m 13.73955,18.43586 c -14.88451,10.37016 -26.33413,14.97913 -35.49383,14.97913 -8.01473,0 -16.02947,-3.45673 -22.89924,-9.21793 1.14496,2.30448 2.28993,4.60896 3.43488,5.7612 l 6.86977,6.91345 c 4.57986,4.60896 10.30467,6.91344 16.02948,6.91344 8.01474,0 17.17443,-4.60896 28.62405,-12.67464 l 10.30466,-6.91345 c 2.28992,-2.30448 4.57985,-4.60896 4.57985,-8.06568 0,-1.15225 0,-2.30449 -1.14496,-2.30449 -1.14497,-2.30448 -6.86978,-5.7612 -18.3194,-9.21792 -10.30466,-4.60897 -18.31939,-6.91345 -22.89924,-6.91345 -3.43488,0 -9.1597,2.30448 -17.17444,6.91345 -6.86977,4.60896 -11.44961,9.21792 -11.44961,13.82689 0,0 1.14496,1.15224 2.28992,3.45672 6.86977,5.7612 13.73955,9.21793 20.60932,9.21793 9.1597,0 20.60931,-4.60897 35.49382,-16.13138 v 2.30449 c 1.14497,0 1.14497,1.15224 1.14497,1.15224 m 26.33413,232.75263 c 4.57984,8.66485 12.59458,13.02032 21.75427,13.02032 2.28993,0 4.57985,-0.34567 6.86977,-1.03702 2.28993,-0.46089 4.57985,-1.26746 5.72482,-2.18925 1.14496,-0.80657 2.28992,-1.61314 3.43489,-2.53493 2.28992,-0.80657 2.28992,-1.38269 3.43488,-1.95881 l 19.46435,-16.93794 c 4.57985,-3.67565 9.1597,-6.8904 14.88451,-9.67882 4.57985,-2.76538 9.1597,-4.60897 11.44962,-5.64598 3.43489,-0.9218 5.72481,-2.30449 8.01474,-4.14807 1.14496,-1.72836 2.28992,-3.91762 2.28992,-6.683 0,-3.3415 -2.28992,-5.87642 -4.57985,-7.72001 -2.28992,-1.84359 -4.57984,-3.11105 -6.86977,-3.91762 -2.28992,-0.80657 -4.57984,-2.65015 -8.01473,-5.7612 -2.28993,-2.99583 -4.57985,-7.1439 -5.72482,-12.55943 l -1.14495,-6.68299 c -1.14497,-3.11105 -1.14497,-5.41553 -2.28993,-6.683 0,-0.34567 0,-0.4609 -1.14496,-0.4609 -1.14496,0 -3.43489,1.03702 -4.57985,2.99583 -2.28993,1.95881 -4.57985,4.14807 -6.86977,6.45255 -1.14496,2.30448 -4.57985,4.37851 -6.86977,6.33732 -3.43489,1.95881 -6.86977,2.99583 -9.1597,2.99583 -9.1597,0 -13.73955,-2.53493 -17.17443,-7.48957 -2.28992,-3.68717 -3.43489,-7.95046 -4.57985,-12.78987 -2.28993,-1.95881 -3.43489,-2.99582 -5.72481,-2.99582 -5.72481,0 -8.01474,5.99165 -8.01474,18.09018 v 35.83468 c 0,1.03702 -1.14495,3.3415 -1.14495,6.91345 -1.14497,3.57194 -1.14497,7.62783 -1.14497,12.21375 l -2.28992,12.78987 v 0.19588 m -166.01951,-6.09535 c 10.64815,1.56705 22.89925,4.92007 36.75329,10.03602 13.85404,5.06986 22.32676,7.72001 25.41815,7.72001 8.01474,0 14.65552,-3.57195 20.15133,-10.47387 1.14497,-2.23535 1.14497,-4.86246 1.14497,-7.88133 0,-10.88867 -6.52629,-24.65795 -19.57886,-41.36544 l -7.78574,-10.48539 c -1.60295,-2.18926 -3.54937,-5.53076 -6.0683,-10.02449 -2.40442,-4.49374 -4.57984,-7.95047 -6.29728,-10.37017 -1.48846,-2.65016 -3.89288,-5.30031 -6.98427,-7.95046 -2.97691,-2.65016 -6.41179,-4.37852 -10.19016,-5.30031 -4.80885,0.92179 -8.12924,2.53493 -9.73218,4.72419 -1.60295,2.18925 -2.51892,4.60896 -2.74791,7.14389 -0.3435,2.4197 -1.03047,4.03284 -2.17544,4.83941 -1.14495,0.69135 -3.09139,1.26747 -5.7248,1.84359 -0.57248,0 -1.60295,0 -3.0914,0.11522 h -3.0914 c -6.0683,0 -10.19016,0.69134 -12.36558,1.84359 -2.86241,3.34149 -4.35086,7.14389 -4.35086,11.17673 0,1.84359 0.45798,4.95464 1.37395,9.33315 0.91597,4.26329 1.37395,7.72001 1.37395,10.13972 0,4.72419 -1.37395,9.44837 -4.23636,14.17256 -2.8624,4.95464 -4.35085,8.64181 -4.35085,11.26892 1.14496,4.47069 8.70171,7.61631 22.55575,9.45989 m 38.12724,-104.73868 c 0,-7.95046 2.06093,-16.70749 6.29729,-27.07766 4.12186,-10.37017 8.24372,-17.28361 12.2511,-21.89258 -0.229,-1.15224 -0.80147,-1.15224 -1.71744,-1.15224 l -1.14497,-1.15224 c -3.32039,3.45673 -7.32775,11.52241 -12.1366,23.04482 -4.80883,10.37017 -7.32775,19.93376 -7.32775,26.96243 0,5.18509 1.25945,9.67882 3.54937,13.59644 2.51893,3.8024 8.58723,9.33315 18.2049,16.36182 l 12.1366,7.95046 c 12.93808,11.29196 19.80785,19.1272 19.80785,23.73616 0,2.41971 -1.14496,4.83941 -4.57985,7.48957 -2.28992,2.76538 -5.38132,4.14806 -8.01474,4.14806 -0.22899,0 -0.34348,0.23045 -0.34348,0.80657 0,0.11523 1.14496,2.41971 3.54937,6.91345 4.80885,6.56777 15.11351,9.79404 28.85305,9.79404 25.18917,0 44.65353,-10.37016 59.53803,-31.1105 0,-5.7612 0,-9.33315 -1.14496,-10.83106 v -4.26329 c 0,-7.48957 1.14496,-13.13555 3.43489,-16.82272 2.28992,-3.68717 4.57984,-5.41553 8.01473,-5.41553 2.28993,0 4.57985,0.80657 6.86978,2.53493 1.14495,-8.87225 1.14495,-16.59226 1.14495,-23.50571 0,-10.48539 0,-19.1272 -2.28992,-27.19288 -1.14496,-6.91345 -3.43488,-12.67465 -5.72481,-17.28361 l -6.86978,-10.37017 c -2.28992,-3.45672 -3.43488,-6.91344 -5.7248,-10.37017 -1.14497,-4.60896 -2.28992,-8.06568 -2.28992,-13.82688 -3.43489,-5.76121 -5.72482,-11.52241 -9.15971,-17.28362 -2.28992,-5.7612 -4.57985,-11.5224 -6.86977,-16.13137 l -10.30466,8.06569 c -11.44962,8.06568 -20.60931,11.52241 -28.62405,11.52241 -6.86977,0 -12.59458,-1.15224 -16.02946,-5.76121 l -6.86977,-5.7612 c 0,3.45672 -1.14497,8.06568 -3.43489,12.67465 l -7.21326,13.82689 c -3.2059,8.06568 -4.92334,12.67464 -5.26683,16.13137 -0.45799,2.30448 -0.80147,4.60896 -1.03047,4.60896 l -8.58721,17.28361 c -9.27419,17.28361 -13.96854,33.29976 -13.96854,46.55053 0,2.65015 0.22899,5.41553 0.68697,8.18091 -5.15233,-3.57195 -7.67124,-8.52658 -7.67124,-14.97913 m 81.97929,109.00197 c -14.88451,0 -26.33413,2.02795 -34.34887,6.04927 v -0.34568 c -5.72481,6.91345 -12.1366,10.4854 -21.06729,10.4854 -5.61032,0 -14.42653,-2.18926 -26.33414,-6.56778 -12.0221,-4.14806 -22.67025,-7.32825 -31.94444,-9.42533 -0.91597,-0.26501 -2.9769,-0.65677 -6.29729,-1.1868 -3.20589,-0.51851 -6.1828,-1.04854 -8.81621,-1.57857 -2.40442,-0.51851 -5.15233,-1.30204 -8.12923,-2.3621 -2.86241,-0.91027 -5.15233,-2.09708 -6.86977,-3.53738 -1.58005,-1.45182 -2.35862,-3.088 -2.35862,-4.92007 0,-1.84358 0.38928,-3.81391 1.16786,-5.91099 0.73277,-1.26746 1.53424,-2.53493 2.33572,-3.68717 0.80147,-1.26747 1.48845,-2.41971 1.94643,-3.57195 0.68698,-1.03701 1.14497,-2.07403 1.60295,-3.22627 0.45799,-1.03702 0.91597,-2.07403 1.14497,-3.3415 0.22899,-1.15224 0.45798,-2.30448 0.45798,-3.45672 0,-1.15224 -0.45798,-4.60896 -1.37396,-10.71584 -0.91597,-5.99165 -1.37395,-9.79405 -1.37395,-11.40718 0,-5.06986 1.14496,-9.10271 3.66388,-11.98331 2.51891,-2.8806 4.92334,-4.37851 7.44226,-4.37851 h 13.16705 c 1.03047,0 2.63341,-0.57612 5.03784,-1.95881 0.80148,-1.84359 1.48845,-3.3415 1.94643,-4.72419 0.57249,-1.38269 0.80147,-2.4197 1.03047,-2.8806 0.22899,-0.69135 0.45799,-1.38269 0.68697,-1.95881 0.45799,-0.80657 1.03047,-1.72836 1.83194,-2.65015 -0.91597,-1.15224 -1.37395,-2.65016 -1.37395,-4.49374 0,-1.26747 0,-2.41971 0.229,-3.11105 0,-4.14807 1.94643,-10.0245 6.0683,-17.74451 l 4.00736,-7.25912 c 3.32039,-6.2221 5.83931,-10.83106 7.67125,-15.44002 1.94643,-4.60897 4.00737,-11.52241 6.29729,-20.74034 1.83194,-8.06568 6.1828,-16.13137 13.05257,-24.19705 l 8.58721,-10.37017 c 5.95381,-6.91344 9.84668,-12.67465 12.0221,-17.28361 2.17543,-4.60896 3.32039,-10.37017 3.32039,-14.97913 0,-2.30448 -0.57247,-9.21793 -1.83194,-20.74033 -1.14495,-11.52241 -1.71744,-23.04482 -1.71744,-33.41499 0,-8.06568 0.68697,-13.82689 2.17543,-19.58809 1.48845,-5.7612 4.12186,-11.52241 8.01474,-16.13137 3.43489,-4.60896 8.01473,-9.21793 14.8845,-11.52241 6.86977,-2.30448 14.88451,-3.45672 24.04421,-3.45672 3.43489,0 6.86977,0 10.30466,1.15224 3.43488,0 8.01473,1.15224 13.73954,3.45672 4.57984,2.30448 9.15969,4.60897 12.59458,8.06569 4.57985,3.45672 8.01474,9.21792 11.44962,14.97913 2.28992,6.91344 4.57985,13.82689 5.72481,23.04481 1.14497,5.76121 1.14497,11.52241 2.28993,19.5881 0,6.91344 1.14496,11.5224 1.14496,14.97913 1.14496,3.45672 1.14496,8.06568 2.28993,13.82689 1.14495,4.60896 2.28992,9.21792 4.57985,12.67464 2.28992,4.60897 4.57984,9.21793 8.01472,13.82689 3.43489,5.76121 8.01474,11.52241 12.59459,18.43585 10.30466,11.52241 18.3194,24.19706 22.89924,36.87171 5.72482,11.52241 9.1597,26.50154 9.1597,42.51768 0,7.95046 -1.14496,15.67048 -3.43488,23.16004 2.28992,0 3.43488,0.92179 4.57984,2.53493 1.14496,1.61314 2.28993,5.06986 3.43488,10.48539 l 1.14497,8.52658 c 1.14496,2.53493 2.28992,4.95464 5.72481,7.02867 2.28993,2.07404 4.57985,3.8024 8.01473,5.18509 2.28993,1.15224 5.72482,2.76537 8.01474,4.83941 2.28992,2.30448 3.43489,4.72418 3.43489,7.25911 0,3.91762 -1.14497,6.79822 -3.43489,8.87226 -2.28992,2.30448 -4.57985,3.91762 -8.01474,4.95463 -2.28992,1.15224 -6.86977,3.45673 -13.73954,6.70604 -5.72481,3.41064 -11.44962,7.54718 -17.17443,12.4442 l -11.44962,9.80557 c -4.57986,4.49374 -9.1597,7.72002 -12.59458,9.67883 -3.43489,2.07403 -8.01474,3.11105 -12.59459,3.11105 l -8.01474,-0.9218 c -9.15969,-2.4197 -14.8845,-7.02867 -18.31938,-14.05733 -18.3194,-2.23535 -33.20391,-3.3415 -42.3636,-3.3415"
             id="path64"
             style="display:inline;fill:#0f121d;fill-opacity:1;stroke-width:13.949;stroke-dasharray:none" />
        </a>
        <path
           id="path65"
           style="display:inline;opacity:1;fill:#ffffff;stroke-width:263.205"
           d="m 283.6543,163.49219 c -42.72028,3.28858 -65.82707,38.61957 -65.07813,82.40429 h 570.71289 c 1.55143,-38.83794 -23.05463,-75.64696 -65.07812,-82.40429 z m -65.14258,96.01367 v 317.72461 c 0,47.87667 38.54326,86.41992 86.41992,86.41992 h 398.00195 c 47.87668,0 86.41993,-38.54325 86.41993,-86.41992 V 259.50586 H 766.22461 V 322.625 563.91602 c 0,40.59393 -32.80004,73.27343 -73.54297,73.27343 H 316.04102 c -40.74294,0 -73.54297,-32.6795 -73.54297,-73.27343 V 503.55469 259.50586 Z" />
        <g
           id="g75">
          <a
             id="a67"
             style="display:inline"
             transform="translate(-52.713984,0.60145509)">
            <path
               id="path66"
               style="display:inline;opacity:1;stroke-width:59.968"
               transform="matrix(1.5851299,0,0,1.5851299,-424.75007,-120.59963)"
               d="m 725.9082,193.77734 a 12.330174,12.330174 0 0 0 -12.33008,12.33008 12.330174,12.330174 0 0 0 12.33008,12.33008 12.330174,12.330174 0 0 0 12.33008,-12.33008 12.330174,12.330174 0 0 0 -12.33008,-12.33008 z" />
            <path
               id="path67"
               style="display:inline;opacity:1;fill:#4cebff;fill-opacity:1;stroke-width:59.968"
               d="m 738.2389,206.1074 a 12.330174,12.330174 0 0 1 -12.33018,12.33017 12.330174,12.330174 0 0 1 -12.33017,-12.33017 12.330174,12.330174 0 0 1 12.33017,-12.33017 12.330174,12.330174 0 0 1 12.33018,12.33017 z" />
          </a>
          <a
             id="a69"
             style="display:inline"
             transform="translate(0.14363107,0.60145509)">
            <path
               id="path68"
               style="display:inline;opacity:1;stroke-width:59.968"
               transform="matrix(1.5851299,0,0,1.5851299,-424.75007,-120.59963)"
               d="m 725.9082,193.77734 a 12.330174,12.330174 0 0 0 -12.33008,12.33008 12.330174,12.330174 0 0 0 12.33008,12.33008 12.330174,12.330174 0 0 0 12.33008,-12.33008 12.330174,12.330174 0 0 0 -12.33008,-12.33008 z" />
            <path
               id="path69"
               style="display:inline;opacity:1;fill:#4cebff;fill-opacity:1;stroke-width:59.968"
               d="m 738.2389,206.1074 a 12.330174,12.330174 0 0 1 -12.33018,12.33017 12.330174,12.330174 0 0 1 -12.33017,-12.33017 12.330174,12.330174 0 0 1 12.33017,-12.33017 12.330174,12.330174 0 0 1 12.33018,12.33017 z" />
          </a>
          <a
             id="a71"
             transform="translate(-105.5716,0.60145509)"
             style="display:inline">
            <path
               id="path70"
               style="display:inline;opacity:1;stroke-width:59.968"
               transform="matrix(1.5851299,0,0,1.5851299,-424.75007,-120.59963)"
               d="m 725.9082,193.77734 a 12.330174,12.330174 0 0 0 -12.33008,12.33008 12.330174,12.330174 0 0 0 12.33008,12.33008 12.330174,12.330174 0 0 0 12.33008,-12.33008 12.330174,12.330174 0 0 0 -12.33008,-12.33008 z" />
            <path
               id="path71"
               style="display:inline;opacity:1;fill:#4cebff;fill-opacity:1;stroke-width:59.968"
               d="m 738.2389,206.1074 a 12.330174,12.330174 0 0 1 -12.33018,12.33017 12.330174,12.330174 0 0 1 -12.33017,-12.33017 12.330174,12.330174 0 0 1 12.33017,-12.33017 12.330174,12.330174 0 0 1 12.33018,12.33017 z" />
          </a>
          <path
             id="path72"
             style="display:inline;opacity:1;stroke-width:85.87"
             d="m 278.92283,189.10174 a 17.655971,17.655971 0 0 0 -17.65596,17.65596 17.655971,17.655971 0 0 0 17.65596,17.65596 17.655971,17.655971 0 0 0 17.65597,-17.65596 17.655971,17.655971 0 0 0 -17.65597,-17.65596 z" />
          <path
             id="path73"
             style="display:inline;opacity:1;stroke-width:85.87"
             d="m 329.39027,189.10174 a 17.655971,17.655971 0 0 0 -17.65596,17.65596 17.655971,17.655971 0 0 0 17.65596,17.65596 17.655971,17.655971 0 0 0 17.65597,-17.65596 17.655971,17.655971 0 0 0 -17.65597,-17.65596 z" />
          <path
             id="path74"
             style="display:inline;opacity:1;stroke-width:85.87"
             d="m 379.85772,189.10174 a 17.655971,17.655971 0 0 0 -17.65596,17.65596 17.655971,17.655971 0 0 0 17.65596,17.65596 17.655971,17.655971 0 0 0 17.65597,-17.65596 17.655971,17.655971 0 0 0 -17.65597,-17.65596 z" />
          <path
             id="path75"
             style="display:inline;opacity:1;stroke-width:85.87"
             d="m 430.32516,189.10174 a 17.655971,17.655971 0 0 0 -17.65596,17.65596 17.655971,17.655971 0 0 0 17.65596,17.65596 17.655971,17.655971 0 0 0 17.65597,-17.65596 17.655971,17.655971 0 0 0 -17.65597,-17.65596 z" />
        </g>
        <path
           id="path76"
           style="opacity:1;fill:#ffffff;stroke-width:58.8175"
           d="m 262.875,276.97266 v 13.69922 h 86.36328 46.27149 2.13671 c 2.66814,-10e-6 4.81446,-2.14828 4.81446,-4.81641 v -4.06641 c 0,-2.66812 -2.14632,-4.8164 -4.81446,-4.8164 h -2.13671 -46.27149 z" />
        <a
           id="a78">
          <path
             id="path77"
             style="display:inline;opacity:1;fill:#4cebff;fill-opacity:1;fill-rule:evenodd;stroke:none;stroke-width:50.3091;stroke-dasharray:none;stroke-opacity:1"
             d="m 286.62305,300.59961 v 13.80469 h 20.13672 55.70507 9.58594 c 2.92292,0 5.27539,-2.35248 5.27539,-5.27539 v -3.25196 c 0,-2.92291 -2.35247,-5.27734 -5.27539,-5.27734 h -9.58594 -55.70507 z" />
          <path
             id="path78"
             style="opacity:1;fill:#4cebff;fill-rule:evenodd;stroke-width:19.7413"
             d="m 262.61249,300.60013 h 11.67796 v 13.80412 h -11.67796 z" />
        </a>
        <a
           id="a81">
          <path
             id="path79"
             style="display:inline;opacity:1;fill:#51efff;fill-opacity:1;fill-rule:evenodd;stroke-width:22.5619"
             d="m 263.99526,363.07513 h 9.4472 c 0.56695,0 1.02337,0.45643 1.02337,1.02338 v 12.78938 c 0,0.56694 -0.45642,1.02337 -1.02337,1.02337 h -9.4472 c -0.56694,0 -1.02337,-0.45643 -1.02337,-1.02337 v -12.78938 c 0,-0.56695 0.45643,-1.02338 1.02337,-1.02338 z" />
          <path
             id="path80"
             style="display:inline;opacity:1;fill:#45daf0;fill-opacity:1;fill-rule:evenodd;stroke-width:34.5293"
             d="m 363.76797,364.22345 21.37588,-1.04639 c 0.56627,-0.0277 3.25043,1.36345 3.2674,4.42755 l 0.029,5.24751 c 0.0106,1.90616 -3.54249,5.01554 -4.10944,5.01593 l -21.15835,0.0143 c -0.56695,3.8e-4 -1.2049,-1.96562 -1.19841,-2.53253 l 0.0682,-5.96125 c 0.006,-0.56691 -0.48773,-5.05676 1.72564,-5.1651 z" />
          <path
             id="path81"
             style="display:inline;opacity:1;fill:#b6fefd;fill-opacity:1;fill-rule:evenodd;stroke-width:55.4835"
             d="m 286.93497,363.07513 64.65186,0.0736 c 2.34462,0.003 3.85276,4.45391 3.86027,5.0208 l 0.0444,3.35481 c 0.049,3.70163 -5.68973,6.2949 -6.25065,6.29572 l -62.30591,0.0912 c -0.56092,8.2e-4 -0.90202,-2.19427 -0.90957,-2.76117 l -0.10071,-7.55891 c -0.0217,-1.62591 0.44936,-4.51669 1.01028,-4.51605 z" />
        </a>
        <path
           style="font-style:italic;font-weight:bold;font-size:26.6667px;line-height:0;font-family:'Hack Nerd Font';-inkscape-font-specification:'Hack Nerd Font Bold Italic';letter-spacing:-1px;fill:#f9f9f9;fill-rule:evenodd;stroke-width:24.5"
           d="m 267.7668,331.10168 h 5.46876 q 3.07292,0 4.6875,1.1849 1.60157,1.19792 1.60157,3.55469 0,1.38021 -0.46875,2.86459 -0.2474,0.76823 -0.5599,1.32812 -0.29948,0.54688 -0.67708,0.98959 -1.00261,1.17187 -2.52605,1.70573 -1.52344,0.53385 -3.91927,0.53385 h -2.13542 l -1.41928,7.27866 h -3.84115 z m 3.97136,8.9323 q 0.97656,0 1.67969,-0.23437 0.71615,-0.23438 1.17188,-0.65104 0.46875,-0.44271 0.70312,-1.09376 0.23438,-0.66406 0.23438,-1.45833 0,-1.28907 -0.67709,-1.77084 -0.6901,-0.49479 -2.30469,-0.49479 h -1.57552 l -1.09375,5.70313 z m 11.57814,-4.07552 h 3.4375 l -0.0781,2.26563 q 0.80729,-1.25001 2.08334,-1.92709 1.27604,-0.69011 2.82552,-0.69011 1.65365,0 2.85157,0.74219 l -0.69011,3.58074 q -1.23698,-1.09375 -3.13802,-1.09375 -2.13542,0 -3.32032,1.18489 -1.17188,1.17188 -1.67969,3.80209 l -1.30208,6.71876 h -3.84116 z m 17.48961,14.96095 q -2.72136,0 -4.2448,-1.61458 -1.51042,-1.62761 -1.51042,-4.75261 0,-2.57813 1.00261,-4.59636 1.0026,-2.03125 2.77344,-3.20313 1.78386,-1.17188 4.10157,-1.17188 2.96875,0 4.42709,1.67969 1.45833,1.66667 1.45833,4.54428 0,2.66927 -1.01563,4.72657 -1.0026,2.05729 -2.79948,3.22917 -1.79688,1.15885 -4.19271,1.15885 z m 0.41667,-3.07292 q 1.01562,0 1.71875,-0.61198 0.71614,-0.61198 1.15885,-1.54948 0.45573,-0.95052 0.66407,-1.96615 0.20833,-1.01562 0.20833,-1.82292 0,-1.61458 -0.57292,-2.40885 -0.55989,-0.8073 -1.60156,-0.8073 -1.09375,0 -1.97917,0.82032 -0.88542,0.80729 -1.40625,2.13542 -0.52084,1.32812 -0.52084,2.89063 0,1.64062 0.59896,2.48698 0.61198,0.83333 1.73178,0.83333 z m 12.89324,8.21616 q -2.53906,0 -4.92188,-0.76823 l 0.70313,-3.45053 q 1.92708,1.17188 4.20573,1.17188 1.69271,0 2.57813,-0.74219 0.89844,-0.72917 1.23698,-2.39583 l 0.35156,-1.73178 q -1.43229,2.18751 -3.9974,2.18751 -1.4974,0 -2.48698,-0.69011 -0.97657,-0.70313 -1.45834,-1.84896 -0.48177,-1.15886 -0.48177,-2.53907 0,-1.18489 0.27344,-2.51302 0.27344,-1.34115 0.82031,-2.60417 0.5599,-1.27604 1.38021,-2.30469 0.83334,-1.04167 1.92709,-1.65365 1.10677,-0.625 2.47396,-0.625 1.41927,0 2.30469,0.71615 0.88542,0.71614 1.15886,2.05729 l 0.83333,-2.36979 h 3.43751 l -2.64324,13.4896 q -0.46875,2.39583 -1.39323,3.85417 -0.92448,1.45833 -2.46094,2.10938 -1.53646,0.65104 -3.84115,0.65104 z m 1.65365,-8.72397 q 0.95052,0 1.6276,-0.58594 0.69011,-0.58594 1.13282,-1.48438 0.45573,-0.91145 0.66406,-1.875 0.22136,-0.97656 0.22136,-1.74479 0,-2.94271 -2.0573,-2.94271 -0.9375,0 -1.6276,0.58593 -0.69011,0.58594 -1.13282,1.4974 -0.42969,0.89844 -0.65104,1.875 -0.20833,0.96355 -0.20833,1.7448 0,2.92969 2.03125,2.92969 z m 12.71096,-11.38022 h 3.4375 l -0.0781,2.26563 q 0.80729,-1.25001 2.08333,-1.92709 1.27604,-0.69011 2.82553,-0.69011 1.65364,0 2.85156,0.74219 l -0.6901,3.58074 q -1.23698,-1.09375 -3.13803,-1.09375 -2.13542,0 -3.32031,1.18489 -1.17188,1.17188 -1.67969,3.80209 l -1.30209,6.71876 h -3.84115 z m 15.57554,14.96095 q -2.08334,0 -3.22917,-1.13281 -1.14584,-1.13281 -1.14584,-3.15105 0,-2.70833 2.0573,-4.19271 2.05729,-1.4974 5.8073,-1.4974 h 2.51302 l 0.10417,-0.63802 q 0.026,-0.18229 0.026,-0.15625 v -0.22135 q 0,-0.74219 -0.66406,-1.13282 -0.65105,-0.39062 -1.87501,-0.39062 -1.11979,0 -2.40885,0.35156 -1.28907,0.35156 -2.94271,1.11979 l 0.61198,-3.25521 q 2.89062,-1.01563 5.44271,-1.01563 2.66928,0 4.11459,1.02865 1.45833,1.02865 1.45833,3.03386 0,0.57292 -0.10416,1.23698 -0.10417,0.66406 -0.2474,1.31511 l -1.60156,8.32032 h -3.43751 v -1.62761 q -1.82292,2.00521 -4.47917,2.00521 z m 1.58854,-2.61719 q 1.4323,0 2.48699,-1.25 1.05469,-1.26302 1.39323,-3.41146 h -1.47136 q -4.40105,0 -4.40105,2.68229 0,0.91146 0.53386,1.44532 0.53385,0.53385 1.45833,0.53385 z m 10.87501,-12.34376 h 2.50001 v 1.51042 q 0.50781,-0.88542 1.28906,-1.36719 0.79427,-0.4948 1.70573,-0.4948 0.91146,0 1.47136,0.48178 0.5599,0.48177 0.66406,1.32812 0.40365,-0.83333 1.23698,-1.3151 0.83334,-0.4948 1.84896,-0.4948 1.22396,0 1.90105,0.75521 0.6901,0.74219 0.6901,2.18751 0,0.45573 -0.0781,1.08073 -0.0781,0.61198 -0.26042,1.54948 l -1.82292,9.36199 h -3.11198 l 1.8099,-9.36199 q 0.10416,-0.53386 0.16927,-0.9375 0.0651,-0.40365 0.0651,-0.70313 0,-1.08073 -0.88542,-1.08073 -0.63802,0 -1.0026,0.58594 -0.37761,0.59896 -0.66406,2.13542 l -1.8099,9.36199 h -3.12501 l 1.83594,-9.36199 q 0.0521,-0.29948 0.10417,-0.57292 0.0521,-0.27344 0.0651,-0.45573 0.0521,-0.33854 0.0521,-0.59896 0,-1.09375 -0.89844,-1.09375 -0.625,0 -0.98959,0.57292 -0.35156,0.57292 -0.65104,2.14844 l -1.8099,9.36199 h -3.125 z m 15.05471,0 h 2.50001 v 1.51042 q 0.50781,-0.88542 1.28906,-1.36719 0.79427,-0.4948 1.70573,-0.4948 0.91146,0 1.47136,0.48178 0.5599,0.48177 0.66406,1.32812 0.40365,-0.83333 1.23698,-1.3151 0.83334,-0.4948 1.84896,-0.4948 1.22396,0 1.90105,0.75521 0.6901,0.74219 0.6901,2.18751 0,0.45573 -0.0781,1.08073 -0.0781,0.61198 -0.26042,1.54948 l -1.82292,9.36199 h -3.11198 l 1.8099,-9.36199 q 0.10416,-0.53386 0.16927,-0.9375 0.0651,-0.40365 0.0651,-0.70313 0,-1.08073 -0.88542,-1.08073 -0.63802,0 -1.0026,0.58594 -0.37761,0.59896 -0.66406,2.13542 l -1.8099,9.36199 h -3.12501 l 1.83594,-9.36199 q 0.0521,-0.29948 0.10417,-0.57292 0.0521,-0.27344 0.0651,-0.45573 0.0521,-0.33854 0.0521,-0.59896 0,-1.09375 -0.89844,-1.09375 -0.625,0 -0.98959,0.57292 -0.35156,0.57292 -0.65104,2.14844 l -1.8099,9.36199 h -3.125 z m 20.6667,-2.64324 q -0.36458,0 -0.36458,-0.33854 l 0.74219,-3.76302 q 0.0521,-0.35157 0.41666,-0.35157 h 3.03386 q 0.36458,0 0.36458,0.33855 l -0.74218,3.76302 q -0.0521,0.35156 -0.41667,0.35156 z m 1.52344,17.33076 q -2.53907,0 -3.71094,-0.74219 -1.17188,-0.74219 -1.17188,-2.35678 0,-0.74218 0.2474,-1.83594 l 1.5625,-6.82292 h -3.07292 l 0.5599,-2.92969 h 6.875 l -2.16146,9.93491 q -0.11718,0.46875 -0.11718,0.79427 0,1.02864 1.82291,1.02864 h 3.6198 l -0.58594,2.9297 z m 9.1172,-14.68752 h 3.41146 v 2.1875 q 0.61198,-1.21094 1.70573,-1.875 1.10677,-0.66407 2.48698,-0.66407 1.62761,0 2.50001,0.91146 0.88541,0.91146 0.88541,2.57813 0,0.75521 -0.23437,1.96615 l -1.83594,9.47918 h -3.81511 l 1.73177,-8.88022 q 0.13021,-0.70313 0.13021,-1.23698 0,-1.69271 -1.40625,-1.69271 -1.08073,0 -1.875,0.96354 -0.79428,0.95052 -1.1198,2.65625 l -1.57552,8.19012 h -3.81511 z m 16.61722,20.10419 q -2.53907,0 -4.92189,-0.76823 l 0.70313,-3.45053 q 1.92709,1.17188 4.20573,1.17188 1.69272,0 2.57813,-0.74219 0.89844,-0.72917 1.23698,-2.39583 l 0.35157,-1.73178 q -1.4323,2.18751 -3.9974,2.18751 -1.4974,0 -2.48699,-0.69011 -0.97656,-0.70313 -1.45833,-1.84896 -0.48177,-1.15886 -0.48177,-2.53907 0,-1.18489 0.27343,-2.51302 0.27344,-1.34115 0.82032,-2.60417 0.5599,-1.27604 1.38021,-2.30469 0.83333,-1.04167 1.92708,-1.65365 1.10678,-0.625 2.47397,-0.625 1.41927,0 2.30469,0.71615 0.88541,0.71614 1.15885,2.05729 l 0.83334,-2.36979 h 3.4375 l -2.64323,13.4896 q -0.46875,2.39583 -1.39323,3.85417 -0.92448,1.45833 -2.46094,2.10938 -1.53646,0.65104 -3.84115,0.65104 z m 1.65364,-8.72397 q 0.95053,0 1.62761,-0.58594 0.6901,-0.58594 1.13281,-1.48438 0.45573,-0.91145 0.66407,-1.875 0.22135,-0.97656 0.22135,-1.74479 0,-2.94271 -2.05729,-2.94271 -0.9375,0 -1.62761,0.58593 -0.6901,0.58594 -1.13281,1.4974 -0.42969,0.89844 -0.65105,1.875 -0.20833,0.96355 -0.20833,1.7448 0,2.92969 2.03125,2.92969 z"
           id="path82"
           aria-label="Programming" />
        <a
           id="a84"
           transform="translate(0.58833494,123.46609)">
          <path
             id="path83"
             style="display:inline;opacity:1;fill:#45ceef;fill-opacity:1;fill-rule:evenodd;stroke:none;stroke-width:36.6947;stroke-dasharray:none;stroke-opacity:1"
             d="m 286.62305,300.59961 v 13.80469 h 10.71275 29.63512 5.09972 c 1.55499,0 4.99233,-2.85273 5.03469,-5.77534 l 0.0409,-2.82262 c 0.0321,-2.21213 -3.52061,-5.20673 -5.0756,-5.20673 h -5.09972 -29.63512 z" />
          <path
             id="path84"
             style="display:inline;opacity:1;fill:#33e2fc;fill-opacity:1;fill-rule:evenodd;stroke-width:19.1882"
             d="m 262.9035,300.99874 10.74632,-0.39861 v 13.80412 l -10.7515,-0.0469 c 0.0437,-4.53425 -0.48298,-13.26385 0.005,-13.35864 z" />
        </a>
        <path
           style="font-style:italic;font-weight:bold;font-size:26.6667px;line-height:0;font-family:'Hack Nerd Font';-inkscape-font-specification:'Hack Nerd Font Bold Italic';letter-spacing:-1px;fill:#f9f9f9;fill-rule:evenodd;stroke-width:24.5"
           d="m 268.01745,391.4801 h 4.10157 q 1.8099,0 3.21615,0.39062 1.40625,0.39063 2.34375,1.21094 1.82292,1.58855 1.82292,4.8698 0,0.46875 -0.0391,1.11979 -0.0391,0.63803 -0.13021,1.25001 -0.0781,0.53385 -0.23438,1.32812 -0.14323,0.78125 -0.29948,1.41927 -0.26041,1.05469 -0.57291,1.90105 -0.3125,0.84635 -0.59896,1.43229 -0.37761,0.78125 -0.8073,1.35417 -0.42968,0.5599 -0.80729,0.9375 -1.1849,1.17188 -2.94271,1.70573 -1.64063,0.52084 -4.54428,0.52084 h -4.29688 z m 1.96615,15.97658 q 1.45833,0 2.46094,-0.57292 0.54688,-0.29948 0.91146,-0.72916 0.36458,-0.42969 0.65104,-0.98959 0.3125,-0.625 0.59896,-1.48438 0.29948,-0.87239 0.50781,-1.80989 0.22136,-0.97657 0.3125,-1.87501 0.10417,-0.91146 0.10417,-1.57552 0,-0.95052 -0.20833,-1.58854 -0.19532,-0.63802 -0.59896,-1.05469 -0.82032,-0.83334 -2.5,-0.83334 h -1.06771 l -2.42188,12.51304 z m 17.03388,3.84115 q -6.64064,0 -6.64064,-6.25001 0,-1.92708 0.59896,-3.58073 0.61198,-1.65365 1.70573,-2.89063 1.09375,-1.23698 2.57813,-1.92708 1.48438,-0.69011 3.25521,-0.69011 1.77084,0 3.09897,0.71615 1.32812,0.70312 2.07031,2.00521 0.74219,1.30208 0.74219,3.07292 0,0.72917 -0.11719,1.52344 -0.10416,0.78125 -0.23437,1.58854 h -9.88283 q -0.026,0.10417 -0.0391,0.3125 -0.013,0.0651 -0.013,0.10417 l -0.0391,0.39062 q 0,2.60417 3.52865,2.60417 2.85156,0 5.35157,-1.57552 l -0.66407,3.50261 q -2.46094,1.09375 -5.29948,1.09375 z m 3.77604,-9.28386 q 0.0912,-0.27344 0.0912,-0.66407 0,-1.13281 -0.66406,-1.77083 -0.66407,-0.63802 -1.86199,-0.63802 -2.59115,0 -3.63281,3.07292 z m 5.88803,-5.67709 h 3.6849 l 1.04167,11.4323 5.06511,-11.4323 h 3.9974 l -7.17449,14.58335 h -4.80469 z m 19.32555,14.96095 q -1.32813,0 -2.42188,-0.40364 -1.08073,-0.40365 -1.83594,-1.25001 -0.76823,-0.85937 -1.11979,-2.08333 -0.33854,-1.23698 -0.33854,-2.83855 0,-1.14583 0.15625,-2.46094 0.16927,-1.32812 0.49479,-2.66927 0.33854,-1.41927 0.78125,-2.57813 0.45573,-1.15886 0.97656,-2.08334 0.45573,-0.82031 1.08073,-1.54948 0.63802,-0.72917 1.53646,-1.27604 0.84636,-0.50781 1.78386,-0.74219 0.95052,-0.23437 1.92709,-0.23437 1.34114,0 2.42187,0.40364 1.08073,0.40365 1.82292,1.22396 0.83334,0.91146 1.14584,2.1875 0.32552,1.26303 0.32552,2.76042 0,1.10678 -0.15625,2.40886 -0.14323,1.28907 -0.48177,2.70834 -0.29948,1.28906 -0.72917,2.47396 -0.42969,1.17188 -1.01563,2.1875 -1.06771,1.88803 -2.63021,2.83855 -1.6276,0.97656 -3.72396,0.97656 z m 0.32552,-3.41146 q 0.79427,0 1.43229,-0.46875 0.65105,-0.46875 1.1198,-1.35417 0.16927,-0.3125 0.3125,-0.66406 0.14323,-0.35157 0.28646,-0.76823 0.16927,-0.48177 0.28645,-0.89844 0.11719,-0.41667 0.26042,-1.01563 0.19531,-0.82031 0.32552,-1.4974 0.14323,-0.67708 0.2474,-1.3151 0.19531,-1.28907 0.19531,-2.26563 0,-1.58854 -0.52083,-2.34375 -0.52084,-0.78125 -1.5625,-0.78125 -0.44271,0 -0.8073,0.1302 -0.35156,0.13021 -0.625,0.32553 -0.625,0.45573 -1.11979,1.35416 -0.18229,0.32553 -0.3125,0.65105 -0.11719,0.32552 -0.2474,0.70312 -0.18229,0.5599 -0.29948,0.95052 -0.10416,0.39063 -0.28646,1.09376 -0.16927,0.67708 -0.32552,1.40625 -0.14323,0.71614 -0.24739,1.38021 -0.19532,1.30208 -0.19532,2.27865 0,1.57552 0.52084,2.33073 0.52083,0.76823 1.5625,0.76823 z m 11.65627,-11.54949 h 3.41146 v 2.1875 q 1.79688,-2.53907 4.2448,-2.53907 1.92708,0 3.02084,1.45834 1.10677,1.44531 1.10677,3.98438 0,1.13281 -0.2474,2.47396 -0.23437,1.32813 -0.74219,2.64323 -0.50781,1.30209 -1.30208,2.38282 -0.78125,1.06771 -1.86198,1.71875 -1.06771,0.65104 -2.46094,0.65104 -1.51042,0 -2.47397,-0.80729 -0.95052,-0.82031 -1.19791,-2.26563 l -1.60157,8.2422 h -3.81511 z m 4.40105,11.86199 q 0.95052,0 1.6276,-0.65104 0.67709,-0.65105 1.09375,-1.64063 0.42969,-0.98958 0.625,-2.04427 0.19532,-1.05469 0.19532,-1.86199 0,-1.38021 -0.53386,-2.13541 -0.53385,-0.75521 -1.52344,-0.75521 -0.95052,0 -1.64062,0.625 -0.69011,0.625 -1.13282,1.58854 -0.44271,0.96354 -0.66406,2.00521 -0.20834,1.02865 -0.20834,1.84896 0,1.40625 0.57292,2.21355 0.57292,0.80729 1.58855,0.80729 z m 13.60939,3.09896 q -2.56511,0 -5.22136,-0.91146 l 0.66406,-3.33334 q 2.34376,1.4974 4.79168,1.4974 1.41927,0 2.22656,-0.50781 0.82032,-0.50781 0.82032,-1.40625 0,-0.54688 -0.40365,-0.84636 -0.52083,-0.41666 -2.1224,-0.87239 l -1.14583,-0.31251 q -3.07292,-0.84635 -3.07292,-3.75 0,-2.22657 1.77083,-3.54167 1.78386,-1.32813 4.97397,-1.32813 1.13281,0 2.23958,0.19532 1.11979,0.18229 2.33073,0.61198 l -0.65104,3.30729 q -2.03125,-1.39323 -4.28386,-1.39323 -1.3151,0 -2.07031,0.46875 -0.75521,0.45573 -0.75521,1.21094 0,0.58594 0.49479,0.95052 0.54688,0.37761 2.13542,0.83334 l 0.96354,0.27343 q 1.65365,0.46875 2.42188,1.39323 0.78125,0.91146 0.78125,2.38282 0,2.36979 -1.82292,3.72396 -1.82292,1.35417 -5.06511,1.35417 z"
           id="path85"
           aria-label="DevOps" />
        <a
           id="a87"
           transform="translate(-0.09391262,187.15818)"
           style="display:inline">
          <path
             id="path86"
             style="display:inline;opacity:1;fill:#45ceef;fill-opacity:1;fill-rule:evenodd;stroke:none;stroke-width:37.8134;stroke-dasharray:none;stroke-opacity:1"
             d="m 286.62305,300.59961 c -1.85849,1.4549 -0.95509,15.06177 0,13.80469 h 11.37588 31.46955 5.41539 c 1.65125,0 5.30136,-2.85273 5.34634,-5.77534 l 0.0434,-2.82262 c 0.0341,-2.21213 -3.73853,-5.20673 -5.38978,-5.20673 h -5.41539 -31.46956 z" />
          <path
             id="path87"
             style="display:inline;opacity:1;fill:#33e2fc;fill-opacity:1;fill-rule:evenodd;stroke-width:19.1882"
             d="m 262.9035,300.99874 10.74632,-0.39861 v 13.80412 l -10.7515,-0.0469 c 0.0437,-4.53425 -0.48298,-13.26385 0.005,-13.35864 z" />
        </a>
        <path
           style="font-style:italic;font-weight:bold;font-size:26.6667px;line-height:0;font-family:'Hack Nerd Font';-inkscape-font-specification:'Hack Nerd Font Bold Italic';letter-spacing:-1px;fill:#f9f9f9;fill-rule:evenodd;stroke-width:24.5"
           d="m 267.96163,456.22766 h 3.84115 l -3.12501,16.0547 h 8.21616 l -0.66407,3.38543 h -12.0573 z m 18.23179,2.21354 q -0.36458,0 -0.36458,-0.33854 l 0.74219,-3.76303 q 0.0521,-0.35156 0.41666,-0.35156 h 3.03386 q 0.36458,0 0.36458,0.33854 l -0.74218,3.76303 q -0.0521,0.35156 -0.41667,0.35156 z m 1.52344,17.33075 q -2.53907,0 -3.71094,-0.74219 -1.17188,-0.74218 -1.17188,-2.35677 0,-0.74219 0.2474,-1.83594 l 1.5625,-6.82292 h -3.07292 l 0.5599,-2.9297 h 6.875 l -2.16146,9.93491 q -0.11718,0.46875 -0.11718,0.79427 0,1.02865 1.82291,1.02865 h 3.6198 l -0.58594,2.92969 z m 9.1172,-14.68752 h 3.41146 v 2.18751 q 0.61198,-1.21094 1.70574,-1.87501 1.10677,-0.66406 2.48698,-0.66406 1.6276,0 2.5,0.91146 0.88542,0.91146 0.88542,2.57813 0,0.75521 -0.23438,1.96615 l -1.83594,9.47918 h -3.81511 l 1.73178,-8.88022 q 0.13021,-0.70313 0.13021,-1.23698 0,-1.69272 -1.40626,-1.69272 -1.08073,0 -1.875,0.96355 -0.79427,0.95052 -1.11979,2.65625 l -1.57552,8.19012 h -3.81511 z m 16.21356,14.96096 q -1.60156,0 -2.48698,-0.92448 -0.88542,-0.92448 -0.88542,-2.63021 0,-0.78125 0.22136,-1.91407 l 1.86198,-9.4922 h 3.78907 l -1.70573,8.90627 q -0.13021,0.67708 -0.13021,1.23698 0,1.69271 1.43229,1.69271 1.08073,0 1.83594,-0.95053 0.76823,-0.95052 1.10677,-2.66927 l 1.58855,-8.21616 h 3.78906 l -2.82552,14.58336 h -3.41146 v -2.16147 q -0.53386,1.17188 -1.65365,1.86199 -1.11979,0.67708 -2.52605,0.67708 z m 15.97919,-8.11199 -3.35937,-6.84897 h 3.91927 l 1.92709,4.12761 3.48958,-4.12761 h 4.32293 l -6.21095,7.20053 3.6198,7.38283 h -3.89324 l -2.21354,-4.63543 -3.94532,4.63543 h -4.32292 z"
           id="path88"
           aria-label="Linux" />
        <a
           id="a120"
           transform="translate(0.37532566,212.76658)"
           style="display:inline">
          <path
             id="path119"
             style="display:inline;opacity:1;fill:#45ceef;fill-opacity:1;fill-rule:evenodd;stroke:none;stroke-width:23.9769;stroke-dasharray:none;stroke-opacity:1"
             d="m 285.97667,300.59961 c -0.74724,1.4549 -0.38401,15.06177 0,13.80469 h 4.57384 12.6528 2.17733 c 0.66392,0 2.13149,-2.85273 2.14958,-5.77534 l 0.0174,-2.82262 c 0.0137,-2.21213 -1.50313,-5.20673 -2.16704,-5.20673 h -2.17734 -12.6528 z" />
          <path
             id="path120"
             style="display:inline;opacity:1;fill:#33e2fc;fill-opacity:1;fill-rule:evenodd;stroke-width:19.1882"
             d="m 262.9035,300.99874 10.74632,-0.39861 v 13.80412 l -10.7515,-0.0469 c 0.0437,-4.53425 -0.48298,-13.26385 0.005,-13.35864 z" />
        </a>
      </g>
      <path
         d="m 143.84102,743.03923 c 0,28.39992 23.06661,51.3332 51.86654,51.3332 20.13328,0 37.73323,-11.19997 45.46655,-29.19993 H 219.7075 c -7.99998,8.39998 -14.9333,11.59997 -24.39994,11.59997 -18.13329,0 -33.06658,-15.19996 -33.06658,-33.59991 0,-18.53329 13.86663,-33.19992 32.66658,-33.19992 11.46664,0 19.19995,3.73333 25.8666,12.39997 h 20.39995 c -8.66665,-19.06662 -26.39993,-29.99992 -46.66655,-29.99992 -27.86659,0 -50.66654,22.79994 -50.66654,50.66654 z m 93.73983,12.66663 c 0,21.33328 17.59995,38.66657 39.1999,38.66657 21.46661,0 39.33323,-17.33329 39.33323,-38.13324 0,-21.99994 -17.19996,-39.1999 -39.46657,-39.1999 -21.46661,0 -39.06656,17.46662 -39.06656,38.66657 z m 17.86662,-0.26667 c 0,-12.1333 9.73331,-22.13327 21.33328,-22.13327 11.86663,0 21.46661,10.1333 21.46661,22.39994 0,12.39997 -9.59998,22.39994 -21.33328,22.39994 -11.99997,0 -21.46661,-9.99997 -21.46661,-22.66661 z m 57.2064,0.13334 c 0,21.86661 16.1333,38.7999 37.06658,38.7999 9.99997,0 17.33329,-3.33333 24.39993,-11.33331 v 9.59998 h 16.26663 v -98.53308 h -17.73329 v 31.19992 c -5.19999,-5.73332 -13.7333,-9.19998 -23.06661,-9.19998 -20.66661,0 -36.93324,17.33329 -36.93324,39.46657 z m 17.86663,-0.8 c 0,-12.5333 9.46664,-22.39994 21.59994,-22.39994 12.39997,0 21.86661,9.99997 21.86661,22.93327 0,12.79997 -9.46664,22.79994 -21.46661,22.79994 -12.39997,0 -21.99994,-10.26664 -21.99994,-23.33327 z m 59.87314,1.2 c 0,21.59994 17.46662,38.3999 39.99989,38.3999 14.9333,0 30.26659,-8.39998 35.19991,-23.59994 h -19.33328 c -4.53332,5.33332 -8.93331,7.33331 -16.26663,7.33331 -10.5333,0 -18.26662,-5.59998 -20.39994,-14.53329 h 57.19985 c 0.53333,-2.53333 0.66667,-4.13333 0.66667,-6.79999 0,-22.93327 -16.1333,-39.73323 -38.13324,-39.73323 -21.73328,0 -38.93323,17.19996 -38.93323,38.93324 z m 18.66661,-7.99998 c 2.8,-9.46665 9.99998,-14.66663 20.53329,-14.66663 10.9333,0 18.13328,5.19998 20.39994,14.66663 z m 56.40641,-4.53333 c 0,28.39993 22.93328,50.93321 51.86654,50.93321 28.66659,0 50.79987,-22.26661 50.79987,-51.06654 0,-28.13326 -22.53328,-50.9332 -50.66654,-50.9332 -29.33326,0 -51.99987,22.26661 -51.99987,51.06653 z m 18.39996,0 c 0,-19.06661 14.39996,-33.46658 33.33325,-33.46658 18.26662,0 32.53325,14.66663 32.53325,33.59992 0,18.93328 -13.86664,33.19991 -32.53325,33.19991 -18.66662,0 -33.33325,-14.66663 -33.33325,-33.33325 z m 86.53978,73.86648 h 17.73329 v -31.59992 c 6.66665,5.99999 13.59997,8.66665 22.66661,8.66665 21.33328,0 36.93324,-16.53329 36.93324,-38.93324 0,-22.26661 -15.46663,-38.3999 -36.79991,-38.3999 -9.99997,0 -18.53328,3.73333 -24.2666,10.39998 v -8.66665 H 570.4064 Z m 16.66663,-61.73317 c 0,-12.66664 9.33331,-22.26661 21.59994,-22.26661 11.99997,0 21.19995,9.73331 21.19995,22.53327 0,12.5333 -9.19998,22.26661 -20.93328,22.26661 -12.5333,0 -21.86661,-9.59997 -21.86661,-22.53327 z m 56.40646,13.59996 c 1.86667,17.19996 12.39997,25.19994 27.0666,25.19994 14.79996,0 26.39993,-11.06664 26.39993,-25.19994 0,-10.9333 -5.06665,-16.79995 -20.53328,-21.59994 -12.1333,-3.86666 -12.5333,-4.13333 -12.5333,-7.99998 0,-3.59999 2.93333,-6.26665 6.79998,-6.26665 3.73333,0 6.13332,1.99999 6.93332,5.86665 h 17.33329 c -0.66667,-13.86663 -11.7333,-22.13328 -24.26661,-22.13328 -13.73329,0 -24.53327,9.86664 -24.53327,22.53328 0,10.79997 5.86666,16.93329 20.53328,21.86661 11.86664,3.99999 12.53331,5.19999 12.53331,9.46664 0,4.13332 -3.46666,7.19998 -7.99998,7.19998 -5.19999,0 -8.13332,-2.66666 -9.86665,-8.93331 z m 54.93991,23.46661 h 18.26662 v -41.33323 h 35.19991 v 41.33323 h 18.26662 v -98.53308 h -18.26662 v 39.73323 H 716.68602 V 694.10602 H 698.4194 Z m 75.33984,-49.33321 c 0,28.39993 23.59994,51.06654 53.33319,51.06654 9.99998,0 20.39995,-2.93333 27.33327,-7.73332 8.39998,5.73332 13.7333,7.99998 22.26661,7.99998 0.53333,0 2.39999,0 3.46665,-0.13333 v -16.53329 c -1.86666,0.26667 -3.59999,0.4 -4.53332,0.4 -3.19999,0 -4.93332,-0.8 -9.06664,-2.93333 7.99998,-8.26664 11.86664,-18.53328 11.86664,-31.59992 0,-29.46659 -22.26661,-51.46653 -52.1332,-51.46653 -29.59993,0 -52.5332,22.26661 -52.5332,50.9332 z m 18.26662,0.13333 c 0,-19.06661 14.66663,-33.46658 33.99991,-33.46658 19.46662,0 33.99991,14.5333 33.99991,34.13325 0,8.93331 -2.66666,15.86663 -7.99998,21.33328 -11.99997,-11.86664 -28.79992,-19.06662 -44.53322,-19.06662 -5.86665,0 -10.66664,0.53333 -15.19996,1.73333 -0.26666,-2.39999 -0.26666,-3.46666 -0.26666,-4.66666 z m 5.86665,18.93329 c 4.26665,-0.8 6.26665,-1.06666 9.46664,-1.06666 10.79997,0 20.26662,3.86665 31.59992,12.9333 -4.13332,1.86666 -6.93332,2.53332 -11.86664,2.53332 -12.39996,0 -21.73327,-4.53332 -29.19992,-14.39996 z"
         id="path121"
         style="font-weight:bold;font-size:133.333px;line-height:0;font-family:'TeX Gyre Adventor';-inkscape-font-specification:'TeX Gyre Adventor Bold';letter-spacing:-10.26px;display:inline;fill:#f9f9f9;fill-rule:evenodd;stroke-width:24.5;filter:url(#filter51)"
         aria-label="CodeOpsHQ" />
    </g>
  </g>
</svg>
